<svg width="100" height="100" viewBox="0 0 100 100" fill="none" xmlns="http://www.w3.org/2000/svg">
<path d="M65.9586 25.5085C65.2679 25.5085 64.6056 25.7829 64.1172 26.2713C63.6288 26.7597 63.3544 27.422 63.3544 28.1127C63.3544 28.8034 63.6288 29.4658 64.1172 29.9541C64.6056 30.4425 65.2679 30.7169 65.9586 30.7169C68.6044 30.7169 71.6628 33.2856 71.9899 36.869C72.0526 37.5569 72.386 38.1917 72.9167 38.6338C73.4475 39.0758 74.1322 39.289 74.8201 39.2263C75.508 39.1635 76.1428 38.8301 76.5849 38.2994C77.0269 37.7686 77.2401 37.0839 77.1773 36.396C76.6273 30.396 71.5586 25.5085 65.9565 25.5085H65.9586Z" fill="#69B99D"/>
<path d="M44.3126 17.1417C39.4626 12.6334 33.621 11.9771 28.5189 13.0938C23.5043 14.1896 18.998 17.0209 16.2939 19.8854C12.9605 23.4125 9.82929 27.9334 9.56471 34.4646V34.4813C9.45221 37.6959 9.87096 42.4438 12.4314 45.9709L12.7189 46.3709C15.2918 49.9334 16.8126 52.0417 17.5668 54.1542L17.573 54.1709C18.4355 56.5334 18.4585 58.8855 18.4897 62.223L18.498 63.1188C18.5439 67.7438 19.8626 75.1688 23.4022 80.5896C25.1105 83.2104 27.4543 85.5334 30.5897 86.698L30.7105 86.7438L30.8355 86.775C33.3293 87.4334 35.6897 87.2959 37.6001 85.8834C39.3835 84.5646 40.2501 82.5042 40.7522 80.5875C41.2626 78.6271 41.5085 76.3313 41.7022 74.0584C41.7585 73.3917 41.8105 72.7292 41.8626 72.0646C41.996 70.3771 42.1272 68.6854 42.3335 66.9771C42.4767 65.7331 42.6734 64.4959 42.923 63.2688C43.6522 59.7834 44.4897 57.7646 45.296 56.5667C46.0085 55.5042 46.7272 55.0396 47.5251 54.7521C49.8897 54.1542 51.3876 54.4625 52.4043 55.0396C53.496 55.6584 54.4439 56.8146 55.2314 58.6125C56.8501 62.3125 57.3105 67.5396 57.696 72.2605V72.2667C58.0918 76.9625 59.0793 81.248 60.9293 84.0084C61.8814 85.4292 63.2293 86.6938 65.0689 87.1375C66.948 87.5917 68.7918 87.0605 70.4251 86.0125L70.4272 86.0105C76.4064 82.1667 79.8585 73.9542 80.8022 63.4896C81.198 59.0563 81.7168 56.7084 82.5314 54.648C83.1918 52.9813 84.046 51.4771 85.3501 49.1854L85.3543 49.1813C85.7522 48.4792 86.196 47.7021 86.6876 46.825C88.0293 44.4417 90.1897 40.1417 90.4314 35.1229C90.6814 29.9188 88.8501 24.1813 82.6751 19.2292C76.7793 14.4521 71.3001 12.7146 66.4105 12.975C61.5605 13.2334 57.6772 15.4354 54.9043 17.825L54.8397 17.8813L54.7793 17.9396C52.0564 20.6104 50.7772 21.1167 49.9189 21.0792C48.9605 21.0375 47.446 20.2917 44.3876 17.2146L44.3522 17.1771L44.3126 17.1417V17.1417ZM20.0793 23.4625C22.1043 21.3188 25.6918 19.0438 29.6314 18.1813C33.4689 17.3417 37.423 17.8688 40.7314 20.9229C43.6814 23.8875 46.4897 26.1438 49.6918 26.2834C52.9855 26.4292 55.7126 24.3125 58.3626 21.7209C60.5397 19.8625 63.3418 18.3542 66.6876 18.175C70.021 17.9979 74.2751 19.125 79.4001 23.2792L79.4126 23.2896C84.2522 27.1688 85.4001 31.2854 85.2272 34.8729C85.048 38.6438 83.3876 42.0688 82.146 44.2688L82.1418 44.2771C81.7251 45.0271 81.3251 45.7292 80.946 46.3917C79.5876 48.775 78.496 50.6938 77.6897 52.7313C76.6105 55.4563 76.0335 58.3688 75.6126 63.0229C74.721 72.9354 71.5501 79.098 67.6126 81.6271C66.7793 82.1625 66.3918 82.098 66.2918 82.075C66.1522 82.0417 65.773 81.8813 65.2564 81.1104C64.1668 79.4854 63.2626 76.3042 62.8855 71.8334V71.8313L62.8689 71.6334C62.5064 67.1834 62.0105 61.1125 60.0022 56.523C58.9585 54.1396 57.3939 51.8813 54.9751 50.5084C52.496 49.1042 49.5147 48.85 46.1105 49.7375L46.0189 49.7625L45.9293 49.7938C44.0751 50.425 42.3793 51.5688 40.971 53.6625C39.6314 55.6563 38.6168 58.4188 37.8251 62.2042C37.5439 63.578 37.3222 64.9633 37.1605 66.3563C36.9439 68.1813 36.798 70.0355 36.6605 71.7605C36.6126 72.4 36.5626 73.0229 36.5126 73.6167C36.3189 75.8938 36.1001 77.7875 35.7126 79.2709C35.3126 80.8 34.846 81.4417 34.5043 81.6938C34.296 81.848 33.7626 82.1375 32.2876 81.7709C30.5585 81.0938 29.048 79.7125 27.7626 77.7438C24.9439 73.425 23.746 67.0813 23.7064 63.0646V63.0604L23.698 62.0542C23.6772 58.9 23.6522 55.6417 22.4689 52.3938C21.4543 49.5604 19.5043 46.8625 17.2001 43.6792L16.6522 42.9209L16.648 42.9146C15.1272 40.8209 14.6689 37.5334 14.7668 34.6667C14.9626 29.9125 17.1772 26.5354 20.0793 23.4625V23.4625ZM47.5251 54.7521L47.4272 54.7771L47.6105 54.723C47.582 54.7324 47.5535 54.7421 47.5251 54.7521V54.7521Z" fill="#69B99D"/>
</svg>
