<?xml version="1.0" encoding="UTF-8"?>
<svg xmlns="http://www.w3.org/2000/svg" xmlns:xlink="http://www.w3.org/1999/xlink" width="375pt" height="374.999991pt" viewBox="0 0 375 374.999991" version="1.2">
<defs>
<clipPath id="clip1">
  <path d="M 62.277344 62.277344 L 312.777344 62.277344 L 312.777344 312.777344 L 62.277344 312.777344 Z M 62.277344 62.277344 "/>
</clipPath>
<clipPath id="clip2">
  <path d="M 122.320312 96 L 252.820312 96 L 252.820312 282 L 122.320312 282 Z M 122.320312 96 "/>
</clipPath>
</defs>
<g id="surface1">
<g clip-path="url(#clip1)" clip-rule="nonzero">
<path style=" stroke:none;fill-rule:nonzero;fill:rgb(100%,100%,100%);fill-opacity:1;" d="M 187.527344 312.777344 C 118.460938 312.777344 62.277344 256.589844 62.277344 187.527344 C 62.277344 118.460938 118.460938 62.277344 187.527344 62.277344 C 256.589844 62.277344 312.777344 118.460938 312.777344 187.527344 C 312.777344 256.589844 256.589844 312.777344 187.527344 312.777344 Z M 187.527344 312.777344 "/>
</g>
<path style=" stroke:none;fill-rule:nonzero;fill:rgb(30.198669%,69.018555%,72.938538%);fill-opacity:1;" d="M 187.527344 72.179688 C 123.925781 72.179688 72.179688 123.925781 72.179688 187.527344 C 72.179688 251.128906 123.925781 302.875 187.527344 302.875 C 251.128906 302.875 302.875 251.128906 302.875 187.527344 C 302.875 123.925781 251.128906 72.179688 187.527344 72.179688 Z M 187.527344 301.664062 C 124.59375 301.664062 73.386719 250.464844 73.386719 187.527344 C 73.386719 124.589844 124.59375 73.386719 187.527344 73.386719 C 250.457031 73.386719 301.664062 124.589844 301.664062 187.527344 C 301.664062 250.464844 250.457031 301.664062 187.527344 301.664062 Z M 187.527344 301.664062 "/>
<g clip-path="url(#clip2)" clip-rule="nonzero">
<path style=" stroke:none;fill-rule:nonzero;fill:rgb(30.198669%,69.018555%,72.938538%);fill-opacity:1;" d="M 246.550781 157.273438 C 243.371094 164.457031 233.863281 178.300781 234.921875 184.960938 C 235.984375 191.625 237.5625 239.046875 233.863281 258.007812 C 230.164062 276.980469 222.226562 282.1875 217.476562 281.957031 C 207.613281 281.457031 208.722656 250.308594 208.386719 244.183594 C 207.785156 233.414062 204.402344 223.28125 194.039062 217.675781 C 175.871094 207.828125 166.238281 233.015625 165.097656 246.738281 C 164.578125 253.054688 166.371094 279.777344 157.34375 280.804688 C 152.613281 281.335938 145.09375 276.992188 141.40625 258.007812 C 137.707031 239.039062 139.285156 191.625 140.347656 184.960938 C 141.40625 178.300781 131.886719 164.457031 128.71875 157.273438 C 125.550781 150.09375 116.042969 131.121094 128.71875 112.148438 C 141.40625 93.1875 163.082031 96.261719 163.082031 96.261719 C 163.082031 96.261719 163.082031 96.261719 176.289062 99.332031 C 179.875 100.167969 183.808594 100.582031 187.640625 100.746094 C 191.472656 100.582031 195.40625 100.167969 198.992188 99.332031 C 199.265625 99.269531 199.519531 99.210938 199.785156 99.148438 C 193.398438 101.988281 187.148438 105.589844 180.457031 107.449219 C 171.742188 109.882812 169.023438 109.617188 160.054688 109.757812 C 182.257812 115.921875 200.613281 104.9375 217.078125 100.847656 C 228.207031 98.082031 240.007812 102.496094 246.429688 111.976562 C 246.46875 112.039062 246.507812 112.097656 246.550781 112.160156 C 259.238281 131.132812 249.730469 150.101562 246.550781 157.273438 Z M 246.550781 157.273438 "/>
</g>
</g>
</svg>
